<?xml version="1.0" encoding="UTF-8" standalone="no"?>
<svg
   xmlns:dc="http://purl.org/dc/elements/1.1/"
   xmlns:cc="http://creativecommons.org/ns#"
   xmlns:rdf="http://www.w3.org/1999/02/22-rdf-syntax-ns#"
   xmlns:svg="http://www.w3.org/2000/svg"
   xmlns="http://www.w3.org/2000/svg"
   xmlns:sodipodi="http://sodipodi.sourceforge.net/DTD/sodipodi-0.dtd"
   xmlns:inkscape="http://www.inkscape.org/namespaces/inkscape"
   version="1.1"
   id="svg2"
   width="4000"
   height="2424"
   viewBox="0 0 4000 2424"
   sodipodi:docname="10.svg"
   inkscape:version="1.0 (4035a4fb49, 2020-05-01)">
  <metadata
     id="metadata8">
    <rdf:RDF>
      <cc:Work
         rdf:about="">
        <dc:format>image/svg+xml</dc:format>
        <dc:type
           rdf:resource="http://purl.org/dc/dcmitype/StillImage" />
        <dc:title />
      </cc:Work>
    </rdf:RDF>
  </metadata>
  <defs
     id="defs6" />
  <sodipodi:namedview
     inkscape:document-rotation="0"
     pagecolor="#ffffff"
     bordercolor="#666666"
     borderopacity="1"
     objecttolerance="10"
     gridtolerance="10"
     guidetolerance="10"
     inkscape:pageopacity="0"
     inkscape:pageshadow="2"
     inkscape:window-width="1920"
     inkscape:window-height="1027"
     id="namedview4"
     showgrid="false"
     inkscape:zoom="0.26475"
     inkscape:cx="2066.4838"
     inkscape:cy="1385.4305"
     inkscape:window-x="3832"
     inkscape:window-y="-8"
     inkscape:window-maximized="1"
     inkscape:current-layer="g10" />
  <g
     inkscape:groupmode="layer"
     inkscape:label="Image"
     id="g10">
    <path
       id="path837"
       d="m 2470.2527,2348.9233 c -20.5401,-2.6763 -41.8398,-7.904 -53.75,-13.1923 l -5.75,-2.553 v -27.3234 -27.3233 l 6.4806,4.9051 c 21.0591,15.9396 60.5726,26.134 89.5394,23.101 27.3186,-2.8604 41.5774,-10.4297 48.8108,-25.9112 2.3374,-5.0026 2.6526,-6.9193 2.6604,-16.1751 0.01,-9.3035 -0.2959,-11.15 -2.6648,-16.204 -5.7302,-12.2249 -21.2459,-23.6015 -50.8264,-37.2673 -48.0359,-22.1919 -72.4209,-40.4623 -84.9071,-63.6167 -6.3016,-11.6856 -8.3888,-20.8079 -8.4459,-36.912 -0.056,-15.7453 1.3463,-22.3833 7.2908,-34.5164 18.0956,-36.9341 67.0244,-56.8593 129.0622,-52.5579 19.5599,1.3562 31.9998,3.4286 43.75,7.2884 l 9.25,3.0385 v 25.8737 c 0,14.2305 -0.1705,25.8737 -0.3788,25.8737 -0.2084,0 -2.9612,-1.555 -6.1173,-3.4555 -20.3657,-12.2636 -50.2026,-17.8474 -77.5301,-14.5095 -19.2136,2.3469 -30.1285,6.9444 -40.0664,16.8763 -7.8818,7.8771 -10.2554,13.6403 -10.1839,24.7274 0.1286,19.9609 9.9347,30.2596 45.2765,47.5512 28.8466,14.1137 31.1312,15.3125 43.8636,23.017 32.5574,19.7006 51.0195,41.0948 56.515,65.4905 2.1057,9.3471 2.1246,27.9508 0.039,38.049 -6.6443,32.167 -34.4499,55.4658 -75.9174,63.6126 -19.2529,3.7824 -46.4941,4.6546 -66,2.1132 z m -2019.24481,-4.7067 c 0.2645,-0.696 26.9758,-72.0344 59.3584,-158.5298 l 58.8774,-157.2643 29.9209,0.2643 29.9209,0.2643 6.5133,17.5 c 3.5824,9.625 30.0217,80.725 58.7542,158 l 52.2408,140.5 -28.6019,0.2656 c -18.1969,0.169 -28.8257,-0.097 -29.2171,-0.7299 -0.3385,-0.5476 -6.8856,-18.783 -14.5492,-40.5231 l -13.9339,-39.5275 -62.4277,0.2575 -62.4276,0.2574 -13.6213,40 -13.6213,40 -28.8335,0.2655 c -22.9277,0.2112 -28.7349,0.01 -28.3524,-1 z m 194.7448,-123.4794 c 0,-0.3926 -7.2606,-21.6551 -16.1347,-47.25 -27.6743,-79.8187 -28.7297,-83.0057 -30.0081,-90.6136 -0.6859,-4.0824 -1.5435,-7.4225 -1.9056,-7.4225 -0.3622,0 -1.1772,3.141 -1.8112,6.98 -0.634,3.839 -11.275,36.4761 -23.6466,72.5269 -12.3716,36.0508 -22.4938,65.7598 -22.4938,66.02 0,0.2602 21.6,0.4731 48,0.4731 26.4,0 48,-0.3212 48,-0.7139 z m 145,-33.8006 v -158.5144 l 30.697,0.2644 30.697,0.2645 77.553,120.6285 c 42.6542,66.3457 78.36431,121.9207 79.35581,123.5 l 1.8028,2.8715 -0.6644,-4 c -0.3655,-2.2 -0.8626,-57.8875 -1.1048,-123.75 l -0.4404,-119.75 h 25.552 25.552 v 158.5 158.5 h -28.8994 -28.8995 l -76.65461,-117.9284 c -42.16,-64.8606 -78.4727,-121.4481 -80.695,-125.75 -2.2222,-4.3019 -4.1104,-7.8967 -4.196,-7.9886 -0.085,-0.092 -0.028,56.4957 0.1275,125.75 l 0.283,125.917 h -25.033 -25.033 z m 347.00001,3e-4 v -158.5143 l 31.0781,0.2643 31.078,0.2642 78.172,121.6384 c 88.571,137.8197 81.0042,126.2014 80.0173,122.8616 -0.4063,-1.375 -0.8953,-57.0625 -1.0867,-123.75 l -0.348,-121.25 h 25.0446 25.0447 v 158.5153 158.5154 l -28.6891,-0.2654 -28.6891,-0.2653 -77.0609,-118.5623 c -42.3835,-65.2092 -78.6359,-121.793 -80.5609,-125.7418 l -3.5,-7.1796 0.2965,125.9919 0.2966,125.9918 h -25.5466 -25.5465 z m 348,0.014 v -158.5 h 27 27 v 158.5 158.5 h -27 -27 z m 207.2045,155.75 c -0.5451,-1.5125 -25.1647,-71.15 -54.7102,-154.75 -29.5455,-83.6 -54.3236,-153.6875 -55.0623,-155.75 l -1.3433,-3.75 h 28.9122 28.9121 l 2.6032,8.25 c 1.4318,4.5375 19.2153,59.325 39.5189,121.75 20.3036,62.425 37.859,117.775 39.012,123 1.153,5.225 2.3398,10.625 2.6373,12 0.383,1.7698 1.2365,-0.5616 2.9223,-7.9821 1.3097,-5.7651 20.8715,-65.9526 43.4707,-133.75 l 41.0893,-123.2677 h 27.8723 27.8723 l -1.3456,3.75 c -0.74,2.0625 -13.8145,38.4 -29.0543,80.75 -15.2399,42.35 -39.9986,111.2 -55.0194,153 -15.0208,41.8 -27.6246,76.7875 -28.0083,77.75 -0.6422,1.611 -3.0251,1.75 -29.9929,1.75 h -29.2951 l -0.9912,-2.75 z m 215.7955,-155.7498 v -158.5 h 85.5 85.5 v 22 22 h -59 -59 v 45 45 h 54.5 54.5 v 22.5 22.5 h -54.5 -54.5 v 46.5 46.5 h 62.5 62.5 v 22.5 22.5 h -89 -89 z m 235,-0.054 v -158.5543 l 63.75,0.3728 c 60.7645,0.3553 64.1715,0.4721 72.75,2.4952 28.9429,6.8256 48.4322,19.6779 60.2625,39.7405 13.1832,22.3568 14.3816,55.8468 2.8962,80.9342 -9.5369,20.8314 -29.9469,38.0426 -54.2221,45.724 -4.0704,1.288 -7.4088,2.6051 -7.4187,2.9268 -0.01,0.3218 3.9787,3.5695 8.8635,7.2173 10.3465,7.7263 18.4945,16.2526 28.858,30.1977 5.758,7.7479 40.7488,61.9767 66.6215,103.25 l 2.6642,4.25 h -30.8075 -30.8074 l -26.3244,-44.25 c -32.2339,-54.1838 -35.5098,-59.179 -45.0453,-68.6898 -12.6015,-12.5686 -22.5396,-16.0128 -46.2905,-16.0428 l -13.75,-0.018 v 64.5 64.5 h -26 -26 v -158.5542 z m 102.6886,-13.4486 c 30.0388,-3.1651 49.3114,-23.9069 49.3114,-53.0708 0,-25.1803 -11.791,-40.9755 -35.5,-47.5559 -4.7501,-1.3183 -12.0931,-1.7595 -35.25,-2.1179 l -29.25,-0.4527 v 51.5501 51.5502 l 5.75,0.3608 c 12.5955,0.7904 36.2514,0.6515 44.9386,-0.2638 z m 449.8858,13.7528 59.2982,-158.25 29.9012,-0.2644 29.9011,-0.2644 16.2809,43.7644 c 76.5453,205.7609 100.3983,270.0079 100.805,271.5144 0.4421,1.6374 -1.3843,1.7489 -28.3942,1.7333 l -28.8666,-0.017 -14.089,-40.2334 -14.0889,-40.2333 -62.5035,-0.2575 -62.5035,-0.2574 -3.6436,10.7574 c -2.0041,5.9166 -8.2031,24.145 -13.7756,40.5075 l -10.1318,29.75 h -28.744 -28.744 l 59.2983,-158.25 z m 126.9784,7 c -5.15,-14.9875 -14.9999,-43.5105 -21.8886,-63.3845 -12.8531,-37.0814 -13.6807,-39.7051 -15.6751,-49.6948 -0.6401,-3.2061 -1.3425,-5.6506 -1.5609,-5.4322 -0.2184,0.2184 -1.1132,3.8597 -1.9884,8.0918 -1.2602,6.0938 -27.033,82.8197 -43.473,129.4197 l -2.9106,8.25 h 48.4301 48.4301 z m 153.4472,-7.2502 v -158.5 l 59.25,0.01 c 47.5822,0 61.212,0.3016 69.2131,1.5075 40.8336,6.1545 67.641,27.13 76.702,60.0157 3.2507,11.7981 3.2539,35.4438 0.01,47.4709 -7.7686,28.771 -28.8734,50.3479 -58.6715,59.9839 -3.85,1.245 -7.3533,2.5837 -7.7851,2.975 -0.4318,0.3912 1.8182,2.4197 5,4.5076 8.3168,5.4577 25.7187,23.388 34.0011,35.0335 6.437,9.0508 67.284,104.077 67.284,105.079 0,0.2316 -13.8375,0.3982 -30.75,0.3703 l -30.75,-0.051 -25.5,-43.1087 c -30.3044,-51.2306 -35.2119,-58.8571 -43.587,-67.735 -7.9159,-8.3914 -12.4654,-11.579 -21.127,-14.8028 -5.9658,-2.2205 -8.8105,-2.5851 -23.536,-3.0169 l -16.75,-0.4911 v 64.6279 64.6279 h -26.5 -26.5 v -158.5 z m 112.5,-14.9541 c 19.8468,-5.2566 34.1771,-19.4076 38.56,-38.0774 0.6415,-2.7327 1.1551,-9.4685 1.1414,-14.9685 -0.031,-12.2403 -2.4272,-20.6968 -8.1176,-28.6434 -4.4599,-6.228 -8.2323,-9.382 -15.8146,-13.2219 -10.0981,-5.1138 -15.4561,-5.8465 -46.5192,-6.361 l -28.75,-0.4762 v 51.5513 51.5514 l 5.75,0.4312 c 12.9859,0.9737 47.6841,-0.1789 53.75,-1.7855 z m 234.5,116.4521 v -57.0019 l -50.5,-100.9961 c -27.775,-55.5478 -50.5003,-101.3345 -50.5006,-101.748 -3e-4,-0.4136 13.3974,-0.6269 29.7726,-0.474 l 29.7731,0.278 31.729,69.2722 c 17.4509,38.0997 32.9063,72.774 34.3454,77.054 1.439,4.28 2.9389,7.4075 3.3332,6.9498 0.3942,-0.4576 1.5254,-3.082 2.5137,-5.832 1.382,-3.8455 69.1374,-146.5291 69.8696,-147.1359 0.881,-0.7301 55.664,-1.3788 55.664,-0.6591 0,0.5129 -5.7979,12.1516 -12.8842,25.8637 -7.0863,13.7122 -30.4863,59.0839 -52,100.8259 l -39.1158,75.8946 v 57.3554 57.3554 h -26 -26 z m -752,-383.1048 c -99.3273,-4.5791 -201.4979,-27.144 -296,-65.3729 -213.2723,-86.2749 -392.0787,-252.2054 -492.4842,-457.0203 -88.7963,-181.1336 -113.4668,-378.0094 -71.928,-573.99998 20.8047,-98.16188 53.8003,-187.48417 97.1657,-263.03753 80.0234,-139.4207 191.428,-255.16458 319.2465,-331.68133 39.6307,-23.72434 85.1576,-46.04254 129.0826,-63.27875 107.2301,-42.07722 186.923,-61.685606 286.4174,-70.472856 68.2441,-6.02725 109.6989,-5.21188 180,3.54042 131.009,16.310256 252.1272,58.479016 361,125.686516 58.6119,36.18132 115.8026,81.75289 166.2673,132.48767 85.7128,86.17161 149.2271,179.17134 194.4744,284.75586 44.4531,103.73118 68.6271,211.71378 73.7329,329.35647 1.836,42.30323 -2.3552,113.50101 -9.5743,162.64351 -20.7497,141.2485 -71.3384,272.4705 -150.16,389.5 -77.7297,115.4082 -181.4091,211.9864 -302.2403,281.5393 -19.0152,10.9456 -62.3669,32.7108 -82.5,41.4201 -128.0295,55.3839 -263.8222,80.3272 -402.5,73.9338 z m 76.5,-458.9639 c 64.3894,-5.3253 125.3334,-24.2287 184.9752,-57.3749 61.9157,-34.41 111.108,-79.5619 150.4079,-138.0544 38.9317,-57.9445 63.7349,-122.7291 72.5511,-189.5 5.064,-38.3526 4.8627,-83.70062 -0.5414,-121.99998 -16.1598,-114.52599 -73.5257,-219.89652 -160.8928,-295.53069 -13.2257,-11.44957 -37.4653,-29.4369 -52.6899,-39.0993 -92.9645,-59.00045 -204.874,-80.56901 -315.3101,-60.77037 -88.3973,15.84761 -171.4953,60.73704 -237,128.02718 -36.5002,37.49508 -63.2953,75.48404 -86.6674,122.87318 -28.2722,57.32463 -44.0331,118.19462 -47.3948,183.04282 -5.4591,105.30646 36.0671,221.29436 110.9676,309.94616 4.177,4.9439 14.1196,15.6918 22.0946,23.8842 69.9454,71.8518 158.4319,117.3195 256,131.5424 11.644,1.6974 25.2232,2.9674 48,4.4892 8.2182,0.5491 41.8227,-0.3443 55.5,-1.4755 z m -1743.75001,450.3207 -385.75,-0.2526 v -60.8331 c 0,-33.4583 -0.2992,-106.1327 -0.665,-161.4987 l -0.665,-100.6656 h 164.165 164.165 l -0.029,-49.75 c -0.016,-27.3625 -0.4417,-122.875 -0.9464,-212.25 -0.5046,-89.375 -1.4474,-283.1 -2.095,-430.49998 -0.6477,-147.4 -1.3198,-268.16043 -1.4935,-268.35652 -0.3009,-0.33953 -8.289,4.12544 -65.9362,36.85517 -39.2425,22.28024 -61.4331,34.87274 -82.4744,46.80156 -10.7109,6.07228 -19.8323,10.81929 -20.2698,10.54891 -0.4374,-0.27038 -30.3483,-44.89705 -66.4685,-99.17036 -36.1201,-54.27332 -70.6986,-105.20376 -76.841,-113.17876 -19.6796,-25.55084 -27.157,-38.09897 -29.5117,-49.52474 -1.5439,-7.4913 -0.763,-11.88165 3.1693,-17.81832 3.8519,-5.81542 11.3878,-11.8213 24.8667,-19.81814 5.7912,-3.43582 35.7294,-22.65337 66.5294,-42.70566 30.8,-20.0523 63.425,-41.26384 72.5,-47.13676 87.331,-56.51658 126.782,-82.01626 139.2794,-90.02513 8.1286,-5.20919 29.0536,-18.62501 46.5,-29.81294 25.9443,-16.6375 68.0903,-43.46466 132.2206,-84.16239 4.125,-2.61777 12.675,-8.07175 19.00001,-12.11997 l 11.5,-7.360386 109.5,-0.36734 c 60.225,-0.20203 123.567,-0.0411 140.7599,0.35764 30.8316,0.71504 31.2661,0.75422 31.7068,2.85956 0.8309,3.969486 3.5778,241.192966 4.5407,392.134576 0.5263,82.5 1.4044,319.65 1.9513,526.99998 0.5469,207.35 1.2846,418.511 1.6394,469.2468 l 0.6451,92.2467 150.1284,0.2533 150.1284,0.2532 -0.2743,37 c -0.1509,20.35 -0.7002,66.7 -1.2208,103 -0.5206,36.3 -1.2488,91.5375 -1.6182,122.75 l -0.6716,56.75 -156.1076,-0.2487 c -85.8591,-0.1368 -329.695,-0.3624 -541.85751,-0.5013 z M 3484.1116,357.54814 c -17.9263,-4.40746 -28.9592,-14.31608 -34.6254,-31.09702 -2.155,-6.38198 -2.2006,-7.66662 -2.5119,-70.75 l -0.317,-64.25 h -16.9523 -16.9523 v -18 -18 h 16.9816 16.9815 l 0.2685,-23.20862 0.2684,-23.20862 20,-5.73881 c 11,-3.15635 21.0125,-5.996036 22.25,-6.310426 l 2.25,-0.57162 v 29.519046 29.51905 h 24 24 v 18 18 h -24.0465 -24.0465 l 0.2965,56.25 c 0.296,56.14918 0.3006,56.26027 2.611,61.98036 4.0699,10.07647 11.5604,14.13808 25.9032,14.04566 6.3269,-0.0408 8.4021,-0.5198 13.3851,-3.08969 l 5.8972,-3.04144 v 17.8557 17.85571 l -5.3064,1.98538 c -8.3417,3.12104 -16.0349,4.1641 -30.1273,4.0847 -8.858,-0.0499 -15.3662,-0.63908 -20.2074,-1.82936 z m 94.6411,-150.09702 V 59.451124 h 23 23 v 64.736646 64.73665 l 3.6746,-5.48665 c 8.7082,-13.00264 23.481,-24.46451 37.2821,-28.92647 12.7178,-4.1117 32.9604,-4.58303 46.0026,-1.07114 20.397,5.49233 34.9564,21.51412 40.9347,45.04609 3.5172,13.84461 4.106,27.20102 4.106,93.13855 v 63.82632 h -22.9532 -22.9533 l -0.3532,-65.75 c -0.3847,-71.62182 -0.2603,-69.98769 -6.3053,-82.78727 -8.7041,-18.43004 -30.3173,-25.47362 -50.0839,-16.32205 -7.598,3.5177 -18.3401,14.87765 -22.7427,24.05069 -6.8534,14.27915 -6.9278,15.18742 -6.682,81.55863 l 0.2195,59.25 h -23.073 -23.0729 z"
       style="fill:#000000;fill-opacity:1" />
  </g>
</svg>
