<svg xmlns="http://www.w3.org/2000/svg" xmlns:xlink="http://www.w3.org/1999/xlink" viewBox="0 0 396.38 327.71"><defs><style>.cls-1{fill:url(#linear-gradient);}.cls-2{fill:url(#linear-gradient-2);}.cls-3{fill:url(#linear-gradient-3);}.cls-10,.cls-11,.cls-12,.cls-13,.cls-14,.cls-20,.cls-27,.cls-4{fill:none;stroke-miterlimit:10;}.cls-20,.cls-27,.cls-4{stroke-width:0.65px;}.cls-4{stroke:url(#linear-gradient-4);}.cls-5{fill:url(#linear-gradient-5);}.cls-6{fill:url(#linear-gradient-6);}.cls-7{fill:url(#linear-gradient-7);}.cls-8{fill:url(#radial-gradient);}.cls-9{fill:url(#linear-gradient-8);}.cls-10,.cls-11,.cls-12,.cls-13,.cls-14{stroke-width:0.82px;}.cls-10{stroke:url(#linear-gradient-9);}.cls-11{stroke:url(#linear-gradient-10);}.cls-12{stroke:url(#linear-gradient-11);}.cls-13{stroke:url(#linear-gradient-12);}.cls-14{stroke:url(#linear-gradient-13);}.cls-15{fill:url(#radial-gradient-2);}.cls-16{fill:#c9bbe5;}.cls-17{fill:url(#linear-gradient-14);}.cls-18{fill:url(#linear-gradient-15);}.cls-19{fill:url(#linear-gradient-16);}.cls-20{stroke:url(#linear-gradient-17);}.cls-21{fill:url(#linear-gradient-18);}.cls-22{fill:url(#linear-gradient-19);}.cls-23{fill:url(#linear-gradient-20);}.cls-24{fill:url(#linear-gradient-21);}.cls-25{fill:url(#linear-gradient-22);}.cls-26{fill:url(#linear-gradient-23);}.cls-27{stroke:url(#linear-gradient-24);}.cls-28{fill:url(#linear-gradient-25);}.cls-29{fill:url(#linear-gradient-26);}.cls-30{fill:url(#linear-gradient-27);}</style><linearGradient id="linear-gradient" x1="1386.58" y1="672.44" x2="1357.14" y2="672.75" gradientTransform="translate(-1242.14 507.96) rotate(-38.64)" gradientUnits="userSpaceOnUse"><stop offset="0.02" stop-color="#1a1c47"/><stop offset="0.16" stop-color="#1e204b"/><stop offset="0.29" stop-color="#292d56"/><stop offset="0.43" stop-color="#3b4169"/><stop offset="0.58" stop-color="#555e84"/><stop offset="0.72" stop-color="#7684a6"/><stop offset="0.86" stop-color="#9eb1cf"/><stop offset="1" stop-color="#cce5ff"/></linearGradient><linearGradient id="linear-gradient-2" x1="1354.39" y1="672.6" x2="1361.49" y2="672.6" gradientTransform="translate(-1119.4 -487.11)" gradientUnits="userSpaceOnUse"><stop offset="0" stop-color="#5eafff"/><stop offset="0.1" stop-color="#5aa7f5"/><stop offset="0.26" stop-color="#4f92d9"/><stop offset="0.48" stop-color="#3d6fad"/><stop offset="0.73" stop-color="#233e6e"/><stop offset="1" stop-color="#060626"/></linearGradient><linearGradient id="linear-gradient-3" x1="-1172.8" y1="3376.13" x2="-1165.69" y2="3376.13" gradientTransform="translate(-932.62 3563.15) rotate(180)" gradientUnits="userSpaceOnUse"><stop offset="0" stop-color="#060633"/><stop offset="0.15" stop-color="#0a0a38"/><stop offset="0.32" stop-color="#151846"/><stop offset="0.49" stop-color="#272d5d"/><stop offset="0.68" stop-color="#414c7d"/><stop offset="0.87" stop-color="#6172a5"/><stop offset="1" stop-color="#7b91c6"/></linearGradient><linearGradient id="linear-gradient-4" x1="1361.49" y1="673.18" x2="1386.58" y2="673.18" gradientTransform="translate(-1242.14 507.96) rotate(-38.64)" gradientUnits="userSpaceOnUse"><stop offset="0" stop-color="#7b91c6"/><stop offset="0.13" stop-color="#7387bc"/><stop offset="0.35" stop-color="#5d6da0"/><stop offset="0.64" stop-color="#394374"/><stop offset="0.98" stop-color="#090936"/><stop offset="1" stop-color="#060633"/></linearGradient><linearGradient id="linear-gradient-5" x1="1286.21" y1="669.73" x2="1356.05" y2="669.73" gradientTransform="translate(-1113.13 -463.5)" gradientUnits="userSpaceOnUse"><stop offset="0.25" stop-color="#cedfcf" stop-opacity="0"/><stop offset="0.32" stop-color="#cce0cf" stop-opacity="0.04"/><stop offset="0.43" stop-color="#c8e4ce" stop-opacity="0.15"/><stop offset="0.58" stop-color="#c0e9ce" stop-opacity="0.34"/><stop offset="0.75" stop-color="#b6f1cd" stop-opacity="0.59"/><stop offset="0.95" stop-color="#a9fbcb" stop-opacity="0.91"/><stop offset="1" stop-color="#a5fecb"/></linearGradient><linearGradient id="linear-gradient-6" x1="1286.21" y1="672.41" x2="1356.05" y2="672.41" gradientTransform="translate(-1111.46 -464.09)" gradientUnits="userSpaceOnUse"><stop offset="0.11" stop-color="#cedfcf" stop-opacity="0"/><stop offset="0.19" stop-color="#cce0cf" stop-opacity="0.04"/><stop offset="0.32" stop-color="#c8e4ce" stop-opacity="0.15"/><stop offset="0.49" stop-color="#c0e9ce" stop-opacity="0.34"/><stop offset="0.7" stop-color="#b6f1cd" stop-opacity="0.59"/><stop offset="0.93" stop-color="#a9fbcb" stop-opacity="0.91"/><stop offset="1" stop-color="#a5fecb"/></linearGradient><linearGradient id="linear-gradient-7" x1="1286.21" y1="676.77" x2="1356.05" y2="676.77" gradientTransform="translate(-1108.74 -465.04)" gradientUnits="userSpaceOnUse"><stop offset="0.25" stop-color="#cedfcf" stop-opacity="0"/><stop offset="0.31" stop-color="#cce0cf" stop-opacity="0.04"/><stop offset="0.42" stop-color="#c8e4ce" stop-opacity="0.15"/><stop offset="0.57" stop-color="#c0e9ce" stop-opacity="0.34"/><stop offset="0.75" stop-color="#b6f1cd" stop-opacity="0.59"/><stop offset="0.94" stop-color="#a9fbcb" stop-opacity="0.91"/><stop offset="1" stop-color="#a5fecb"/></linearGradient><radialGradient id="radial-gradient" cx="226.05" cy="72.84" r="167.41" gradientTransform="translate(27.21 -53.17) rotate(16.16) scale(1 0.9)" gradientUnits="userSpaceOnUse"><stop offset="0" stop-color="#060633"/><stop offset="0.12" stop-color="#191b45"/><stop offset="0.37" stop-color="#4c5175"/><stop offset="0.72" stop-color="#9ba6c0"/><stop offset="1" stop-color="#deeeff"/></radialGradient><linearGradient id="linear-gradient-8" x1="246.92" y1="139.63" x2="231.98" y2="152.23" gradientTransform="translate(145.28 -121.56) rotate(39.26)" xlink:href="#linear-gradient-3"/><linearGradient id="linear-gradient-9" x1="241.06" y1="135.35" x2="188.26" y2="179.85" gradientTransform="matrix(1, 0, 0, 1, 0, 0)" xlink:href="#linear-gradient-3"/><linearGradient id="linear-gradient-10" x1="244.61" y1="139.77" x2="191.82" y2="184.27" gradientTransform="matrix(1, 0, 0, 1, 0, 0)" xlink:href="#linear-gradient-3"/><linearGradient id="linear-gradient-11" x1="249.2" y1="145.99" x2="196.4" y2="190.49" gradientTransform="matrix(1, 0, 0, 1, 0, 0)" xlink:href="#linear-gradient-3"/><linearGradient id="linear-gradient-12" x1="241.27" y1="139.05" x2="196.82" y2="176.51" gradientTransform="matrix(1, 0, 0, 1, 0, 0)" xlink:href="#linear-gradient-3"/><linearGradient id="linear-gradient-13" x1="244.87" y1="144.76" x2="200.38" y2="182.26" gradientTransform="matrix(1, 0, 0, 1, 0, 0)" xlink:href="#linear-gradient-3"/><radialGradient id="radial-gradient-2" cx="545.59" cy="236.87" r="75.29" gradientTransform="matrix(1, 0.05, -0.05, 0.9, -398.38, -45.75)" gradientUnits="userSpaceOnUse"><stop offset="0" stop-color="#060635"/><stop offset="0.13" stop-color="#171b49"/><stop offset="0.4" stop-color="#43517c"/><stop offset="0.78" stop-color="#89a6ce"/><stop offset="1" stop-color="#b3d9ff"/></radialGradient><linearGradient id="linear-gradient-14" x1="1399.85" y1="602.56" x2="1370.42" y2="602.88" xlink:href="#linear-gradient"/><linearGradient id="linear-gradient-15" x1="1367.66" y1="602.72" x2="1374.77" y2="602.72" gradientTransform="translate(-1165.94 -480.11)" xlink:href="#linear-gradient-2"/><linearGradient id="linear-gradient-16" x1="-1186.07" y1="3446" x2="-1178.96" y2="3446" gradientTransform="translate(-979.16 3570.15) rotate(180)" xlink:href="#linear-gradient-3"/><linearGradient id="linear-gradient-17" x1="1374.77" y1="603.31" x2="1399.85" y2="603.31" xlink:href="#linear-gradient-4"/><linearGradient id="linear-gradient-18" x1="1299.49" y1="599.86" x2="1369.33" y2="599.86" gradientTransform="translate(-1159.67 -456.5)" xlink:href="#linear-gradient-5"/><linearGradient id="linear-gradient-19" x1="1299.49" y1="602.53" x2="1369.33" y2="602.53" gradientTransform="translate(-1158 -457.08)" xlink:href="#linear-gradient-6"/><linearGradient id="linear-gradient-20" x1="1299.49" y1="606.89" x2="1369.33" y2="606.89" gradientTransform="translate(-1155.28 -458.04)" xlink:href="#linear-gradient-7"/><linearGradient id="linear-gradient-21" x1="1270.28" y1="636.42" x2="1240.84" y2="636.74" gradientTransform="translate(-1242.14 507.96) rotate(-38.64)" gradientUnits="userSpaceOnUse"><stop offset="0.02" stop-color="#293362"/><stop offset="0.16" stop-color="#2d3766"/><stop offset="0.31" stop-color="#384471"/><stop offset="0.46" stop-color="#4b5883"/><stop offset="0.61" stop-color="#66759d"/><stop offset="0.76" stop-color="#889bbe"/><stop offset="0.91" stop-color="#b1c8e5"/><stop offset="1" stop-color="#cce5ff"/></linearGradient><linearGradient id="linear-gradient-22" x1="1238.09" y1="636.58" x2="1245.19" y2="636.58" gradientTransform="translate(-1116.43 -406.61)" xlink:href="#linear-gradient-2"/><linearGradient id="linear-gradient-23" x1="-1056.5" y1="3412.14" x2="-1049.39" y2="3412.14" gradientTransform="translate(-929.65 3643.65) rotate(180)" xlink:href="#linear-gradient-3"/><linearGradient id="linear-gradient-24" x1="1245.19" y1="637.17" x2="1270.28" y2="637.17" xlink:href="#linear-gradient-4"/><linearGradient id="linear-gradient-25" x1="1088.13" y1="632.2" x2="1239.75" y2="632.2" gradientTransform="translate(-1242.14 507.96) rotate(-38.64)" xlink:href="#linear-gradient-5"/><linearGradient id="linear-gradient-26" x1="1088.13" y1="634.88" x2="1239.75" y2="634.88" gradientTransform="translate(-1242.14 507.96) rotate(-38.64)" xlink:href="#linear-gradient-6"/><linearGradient id="linear-gradient-27" x1="1088.13" y1="639.24" x2="1239.75" y2="639.24" gradientTransform="translate(-1242.14 507.96) rotate(-38.64)" xlink:href="#linear-gradient-7"/></defs><g id="Layer_2" data-name="Layer 2"><g id="bg_ship_d" data-name="bg ship d"><path class="cls-1" d="M232,177.33l13,16.31L266.5,176.5l-2.14-5.85s-13.46-8.41-20.08-3.12Z"/><ellipse class="cls-2" cx="238.54" cy="185.49" rx="3.55" ry="10.44" transform="translate(-63.6 189.54) rotate(-38.64)"/><ellipse class="cls-3" cx="236.62" cy="187.02" rx="3.55" ry="7.98" transform="translate(-64.98 188.67) rotate(-38.64)"/><polyline class="cls-4" points="240.46 182.19 247.33 176.7 252.84 177.31 262.5 169.59"/><path class="cls-5" d="M173.08,203.64h68.56a1.29,1.29,0,0,1,1.29,1.29v2.6a1.29,1.29,0,0,1-1.29,1.29H173.08a0,0,0,0,1,0,0v-5.18a0,0,0,0,1,0,0Z" transform="translate(-83.24 175.01) rotate(-38.64)"/><path class="cls-6" d="M174.75,206.48H243.3a1.29,1.29,0,0,1,1.29,1.29v1.11a1.29,1.29,0,0,1-1.29,1.29H174.75a0,0,0,0,1,0,0v-3.69A0,0,0,0,1,174.75,206.48Z" transform="translate(-84.18 176.51) rotate(-38.64)"/><path class="cls-7" d="M177.47,210.44H246a1.29,1.29,0,0,1,1.29,1.29v0A1.29,1.29,0,0,1,246,213H177.47a0,0,0,0,1,0,0v-2.57a0,0,0,0,1,0,0Z" transform="translate(-85.71 178.95) rotate(-38.64)"/><circle class="cls-8" cx="300.14" cy="96.24" r="96.24"/><ellipse class="cls-9" cx="243.06" cy="142.89" rx="7.68" ry="12.25" transform="translate(-35.56 186.06) rotate(-39.26)"/><line class="cls-10" x1="241.92" y1="136.41" x2="187.39" y2="178.8"/><line class="cls-11" x1="245.48" y1="140.83" x2="190.95" y2="183.22"/><line class="cls-12" x1="250.07" y1="147.04" x2="195.53" y2="189.43"/><polyline class="cls-13" points="239.94 137.95 239.72 145.31 231.63 144.41 231.63 151.59 222.8 151.27 222.8 157.6 214.66 157.6 214.17 165.16 206.2 164.18 206.2 171.36 198.5 170.16 198.15 177.62"/><polyline class="cls-14" points="247.8 148.8 239.72 145.31 239.94 154.92 231.63 151.59 230.79 162.02 223.13 158.2 222.8 168.24 214.17 165.16 214.66 174.57 206.2 171.36 206.61 180.82 197.41 178.2"/><circle class="cls-15" cx="169.54" cy="200.16" r="43.28"/><circle class="cls-16" cx="294.57" cy="151.14" r="1.39"/><circle class="cls-16" cx="302.15" cy="151.14" r="1.39"/><circle class="cls-16" cx="321.97" cy="117.48" r="1.39"/><circle class="cls-16" cx="329.55" cy="117.48" r="1.39"/><circle class="cls-16" cx="337.68" cy="117.48" r="1.39"/><circle class="cls-16" cx="286.71" cy="138.68" r="1.39"/><circle class="cls-16" cx="294.3" cy="138.68" r="1.39"/><circle class="cls-16" cx="302.42" cy="138.68" r="1.39"/><circle class="cls-16" cx="180.57" cy="176.23" r="1.39"/><circle class="cls-16" cx="188.15" cy="176.23" r="1.39"/><path class="cls-17" d="M198.76,114.46l13,16.31,21.44-17.14-2.13-5.85s-13.47-8.41-20.09-3.12Z"/><ellipse class="cls-18" cx="205.28" cy="122.62" rx="3.55" ry="10.44" transform="translate(-31.63 155.01) rotate(-38.64)"/><ellipse class="cls-19" cx="203.36" cy="124.15" rx="3.55" ry="7.98" transform="translate(-33.01 154.15) rotate(-38.64)"/><polyline class="cls-20" points="207.2 119.32 214.07 113.83 219.58 114.44 229.24 106.72"/><path class="cls-21" d="M139.82,140.77h68.56a1.29,1.29,0,0,1,1.29,1.29v2.6a1.29,1.29,0,0,1-1.29,1.29H139.82a0,0,0,0,1,0,0v-5.18A0,0,0,0,1,139.82,140.77Z" transform="translate(-51.26 140.48) rotate(-38.64)"/><path class="cls-22" d="M141.49,143.61H210a1.29,1.29,0,0,1,1.29,1.29V146a1.29,1.29,0,0,1-1.29,1.29H141.49a0,0,0,0,1,0,0v-3.69A0,0,0,0,1,141.49,143.61Z" transform="translate(-52.2 141.98) rotate(-38.64)"/><path class="cls-23" d="M144.21,147.57h68.56a1.29,1.29,0,0,1,1.29,1.29v0a1.29,1.29,0,0,1-1.29,1.29H144.21a0,0,0,0,1,0,0v-2.57A0,0,0,0,1,144.21,147.57Z" transform="translate(-53.73 144.42) rotate(-38.64)"/><path class="cls-24" d="M118.69,221.81l13,16.31L153.17,221,151,215.13s-13.46-8.41-20.09-3.11Z"/><ellipse class="cls-25" cx="125.21" cy="229.97" rx="3.55" ry="10.44" transform="translate(-116.18 128.51) rotate(-38.64)"/><ellipse class="cls-26" cx="123.29" cy="231.5" rx="3.55" ry="7.98" transform="translate(-117.56 127.65) rotate(-38.64)"/><polyline class="cls-27" points="127.13 226.68 134 221.18 139.51 221.79 149.16 214.08"/><path class="cls-28" d="M3.23,323.23l119.32-91.5a1.29,1.29,0,0,0,.21-1.81l-1.63-2a1.3,1.3,0,0,0-1.81-.2L0,319.19Z"/><path class="cls-29" d="M4.44,324.74l119.32-91.5a1.28,1.28,0,0,0,.2-1.81l-.69-.87a1.3,1.3,0,0,0-1.81-.2L2.14,321.86Z"/><path class="cls-30" d="M6.81,327.71l119.32-91.5a1.29,1.29,0,0,0,.21-1.81h0a1.3,1.3,0,0,0-1.81-.2L5.2,325.7Z"/></g></g></svg>